<svg width="16" height="16" viewBox="0 0 16 16" fill="none" xmlns="http://www.w3.org/2000/svg">
<g clip-path="url(#clip0_64_2)">
<rect width="16" height="16" rx="1" fill="#BBF662"/>
<path d="M2.5 13V10.88H3.9V4.48H2.5V2.38H6.31L6.89 4.77C7.27 3.85667 7.75333 3.17667 8.34 2.73C8.93333 2.28333 9.65667 2.06 10.51 2.06C10.87 2.06 11.19 2.09 11.47 2.15C11.75 2.20333 12.0133 2.28 12.26 2.38L11.3 4.99C11.1067 4.93667 10.9133 4.89667 10.72 4.87C10.5267 4.84333 10.3133 4.83 10.08 4.83C9.38667 4.83 8.77667 5.11333 8.25 5.68C7.73 6.24667 7.33333 6.96667 7.06 7.84V10.88H9.16V13H2.5ZM9.69 6.82V3.72L10.16 2.38H12.26L11.67 6.82H9.69ZM9.96219 11.11C9.96219 10.7033 10.0622 10.3333 10.2622 10C10.4622 9.66 10.7322 9.39 11.0722 9.19C11.4122 8.98333 11.7855 8.88 12.1922 8.88C12.6055 8.88 12.9789 8.98333 13.3122 9.19C13.6522 9.39 13.9222 9.66 14.1222 10C14.3222 10.3333 14.4222 10.7033 14.4222 11.11C14.4222 11.51 14.3222 11.88 14.1222 12.22C13.9222 12.56 13.6522 12.83 13.3122 13.03C12.9789 13.2367 12.6055 13.34 12.1922 13.34C11.7855 13.34 11.4122 13.2367 11.0722 13.03C10.7322 12.83 10.4622 12.56 10.2622 12.22C10.0622 11.88 9.96219 11.51 9.96219 11.11Z" fill="black"/>
</g>
<defs>
<clipPath id="clip0_64_2">
<rect width="16" height="16" fill="white"/>
</clipPath>
</defs>
</svg>
