<svg width="181" height="321" viewBox="0 0 181 321" fill="none" xmlns="http://www.w3.org/2000/svg">
<rect y="43" width="181" height="181" rx="15" fill="#04B43F"/>
<path d="M54.9432 194V84.9091H93.0114V105.648H94.1477C96.1364 97.9773 99.285 92.3665 103.594 88.8153C107.95 85.2642 113.04 83.4886 118.864 83.4886C120.568 83.4886 122.249 83.6307 123.906 83.9148C125.611 84.1515 127.244 84.5066 128.807 84.9801V118.432C126.866 117.769 124.474 117.272 121.634 116.94C118.793 116.609 116.354 116.443 114.318 116.443C110.483 116.443 107.027 117.319 103.949 119.071C100.919 120.776 98.5275 123.19 96.7756 126.315C95.0237 129.393 94.1477 133.015 94.1477 137.182V194H54.9432Z" fill="white"/>
<circle cx="100.5" cy="167.5" r="31.5" fill="#04B43F"/>
<circle cx="100.5" cy="167.5" r="26.5" fill="white"/>
</svg>
